<?xml version="1.0" standalone="no"?>
<!DOCTYPE svg PUBLIC "-//W3C//DTD SVG 20010904//EN"
 "http://www.w3.org/TR/2001/REC-SVG-20010904/DTD/svg10.dtd">
<svg version="1.0" xmlns="http://www.w3.org/2000/svg"
 width="400.000000pt" height="400.000000pt" viewBox="0 0 400.000000 400.000000"
 preserveAspectRatio="xMidYMid meet">
<metadata>
Created by potrace 1.16, written by Peter Selinger 2001-2019
</metadata>
<g transform="translate(0.000000,400.000000) scale(0.100000,-0.100000)"
fill="#000000" stroke="none">
<path d="M0 2000 l0 -2000 2000 0 2000 0 -2 1968 c-1 1082 -4 1925 -5 1874 -4
-102 -16 -121 -54 -86 -17 16 -20 27 -15 61 6 44 49 123 66 123 6 0 10 14 10
30 l0 30 -2000 0 -2000 0 0 -2000z m1958 1542 c-10 -60 94 -71 115 -12 4 10 6
8 6 -7 1 -12 -3 -25 -9 -28 -17 -10 -11 -35 8 -35 9 1 28 7 41 14 19 11 29 11
43 2 14 -8 21 -8 27 3 7 11 15 11 41 2 61 -21 100 -84 100 -163 0 -53 16 -84
36 -67 12 10 17 8 29 -7 8 -10 15 -30 15 -44 0 -14 22 -52 50 -88 49 -63 73
-125 109 -277 34 -146 31 -592 -4 -715 -9 -30 -19 -66 -22 -80 -15 -65 -195
-260 -275 -297 -25 -12 -56 -36 -69 -54 -29 -41 -106 -76 -184 -84 -52 -6 -76
-3 -146 20 -46 14 -102 37 -124 50 -22 13 -57 33 -77 45 -21 11 -38 25 -38 30
0 6 -10 10 -22 10 -12 0 -45 14 -75 30 -29 17 -55 30 -58 30 -3 0 -5 -15 -5
-33 0 -51 53 -121 159 -209 52 -43 98 -78 103 -78 20 0 4 26 -44 68 -107 95
-183 182 -159 182 5 0 47 -23 93 -52 46 -28 117 -67 158 -86 70 -33 81 -36
175 -35 111 0 193 22 249 68 17 14 55 42 85 62 30 20 94 75 143 121 l88 84 0
-94 0 -93 -77 -76 c-95 -92 -192 -165 -233 -174 -31 -7 -79 -57 -61 -63 5 -2
23 5 38 16 15 10 57 36 93 57 79 47 158 106 228 172 l52 49 0 123 c0 137 8
149 48 70 45 -90 53 -345 17 -513 -11 -51 -62 -166 -186 -420 -94 -193 -173
-353 -175 -356 -10 -9 -22 25 -39 109 -9 47 -33 119 -52 159 -34 71 -34 73
-31 190 2 109 1 120 -21 157 -43 72 -48 75 -117 75 -44 0 -67 -5 -79 -16 -20
-21 -65 -109 -65 -128 0 -9 21 -39 46 -67 53 -60 83 -120 84 -164 0 -17 -15
-60 -34 -95 -19 -36 -44 -95 -56 -133 -12 -37 -25 -67 -30 -67 -13 0 -24 18
-100 165 -40 77 -115 214 -165 305 -51 91 -109 198 -129 239 l-38 74 5 186 c2
102 6 196 10 207 4 15 -8 43 -38 91 -55 90 -88 164 -103 233 -7 30 -19 86 -27
124 -11 48 -12 72 -5 81 7 9 7 27 1 56 -5 24 -12 82 -16 128 -4 46 -15 110
-26 143 -29 93 -19 282 20 369 10 24 24 69 29 99 6 30 16 84 22 120 6 36 21
80 32 98 l20 33 27 -25 c16 -15 39 -26 55 -26 32 0 82 24 94 45 4 9 24 23 43
33 23 12 38 28 45 52 16 48 30 48 38 0 10 -61 36 -47 36 21 0 33 7 37 25 13 9
-14 16 -14 33 -5 12 6 22 21 22 31 0 15 7 20 26 20 21 0 24 -4 19 -20 -3 -11
-4 -20 -1 -20 4 0 23 9 43 20 21 11 43 20 50 20 7 0 13 5 13 10 0 6 7 10 16
10 9 0 14 -7 12 -18z m829 -553 c7 -13 13 -46 13 -74 0 -60 -25 -230 -39 -268
-6 -15 -16 -58 -21 -95 -13 -80 -32 -112 -65 -112 -31 0 -35 26 -38 270 -2
193 -3 190 46 289 24 48 77 43 104 -10z m-1678 -119 c25 -13 55 -87 84 -210
24 -98 52 -318 43 -328 -9 -8 -37 47 -43 84 -3 22 -35 101 -70 177 -49 104
-66 151 -70 197 -7 78 11 105 56 80z"/>
<path d="M2070 2981 c-103 -33 -130 -47 -130 -66 0 -11 4 -13 18 -6 29 16 309
44 374 37 48 -5 64 -11 80 -31 11 -14 24 -25 29 -25 19 0 8 41 -18 70 -27 29
-32 30 -128 34 -55 2 -109 6 -120 9 -11 3 -58 -6 -105 -22z"/>
<path d="M1522 2942 c-8 -5 -13 -13 -12 -18 0 -5 -6 -10 -14 -12 -9 -2 -16 1
-16 7 0 6 -12 11 -27 10 -16 -1 -35 1 -44 5 -10 4 -20 3 -24 -3 -3 -6 -14 -11
-24 -11 -26 0 -71 -48 -71 -76 0 -37 19 -38 56 -3 40 39 84 47 250 48 122 1
162 14 128 42 -20 16 -181 25 -202 11z"/>
<path d="M1925 2824 c-19 -46 -19 -68 0 -130 8 -27 20 -80 26 -119 12 -73 26
-110 65 -161 13 -17 24 -41 24 -53 0 -32 -27 -90 -45 -97 -8 -3 -15 -10 -15
-15 0 -20 25 -7 62 31 33 36 38 47 38 88 0 41 -6 54 -45 102 -25 30 -45 61
-45 67 0 7 -1 15 -2 18 -6 18 -14 95 -10 95 3 0 20 -12 39 -26 50 -38 52 -21
4 31 -29 31 -41 53 -41 74 0 31 -15 50 -23 29 -10 -30 -16 3 -8 46 11 57 -3
69 -24 20z"/>
<path d="M2132 2834 c-12 -23 -5 -76 11 -86 18 -12 147 -10 147 2 0 6 -11 10
-25 10 -21 0 -25 5 -25 30 0 37 4 37 45 1 18 -16 39 -31 46 -33 11 -4 11 -10
1 -33 -15 -33 -11 -40 17 -25 34 18 28 64 -15 106 -33 34 -40 36 -114 41 -69
5 -79 4 -88 -13z"/>
<path d="M1487 2805 c-56 -15 -73 -28 -94 -68 -17 -33 -11 -88 12 -107 12 -10
16 -9 21 3 3 9 3 21 -1 27 -14 23 7 27 55 12 36 -11 53 -13 61 -5 8 8 -4 16
-40 28 -55 18 -65 39 -33 68 24 22 42 22 42 -1 0 -50 60 -80 94 -46 16 16 22
79 8 88 -21 12 -82 13 -125 1z"/>
<path d="M2191 2170 c-18 -10 -95 -34 -170 -52 -118 -28 -153 -33 -263 -32
-100 0 -128 -3 -128 -13 0 -27 52 -35 185 -28 84 4 153 13 195 26 36 11 85 20
108 20 36 1 51 7 83 36 21 19 39 42 39 49 0 18 -8 17 -49 -6z"/>
</g>
</svg>
